<?xml version="1.0" encoding="UTF-8"?>
<svg xmlns="http://www.w3.org/2000/svg" xmlns:xlink="http://www.w3.org/1999/xlink" viewBox="0 0 48 48" width="48px" height="48px">
<g id="surface58748297">
<path style=" stroke:none;fill-rule:nonzero;fill:rgb(100%,100%,100%);fill-opacity:1;" d="M 39.5 43 L 30.5 43 C 29.117188 43 28 41.882812 28 40.5 L 28 31.5 C 28 30.394531 27.105469 29.5 26 29.5 L 22 29.5 C 20.894531 29.5 20 30.394531 20 31.5 L 20 40.5 C 20 41.882812 18.882812 43 17.5 43 L 8.5 43 C 7.117188 43 6 41.882812 6 40.5 L 6 21.414062 C 6 19.113281 7.054688 16.941406 8.859375 15.519531 L 23.070312 4.320312 C 23.617188 3.894531 24.382812 3.894531 24.929688 4.320312 L 39.140625 15.519531 C 40.945312 16.941406 42 19.113281 42 21.410156 L 42 40.5 C 42 41.882812 40.882812 43 39.5 43 Z M 39.5 43 "/>
</g>
</svg>
